<?xml version="1.0" encoding="utf-8"?>
<svg contentScriptType="text/ecmascript" xmlns:xlink="http://www.w3.org/1999/xlink" zoomAndPan="magnify" style="-webkit-print-color-adjust:exact; color-adjust:exact !important;" contentStyleType="text/css" viewBox="395.0 32.0 300.5434287338526 300.5434099271784" xmlns:cacoo="http://cacoo.com/" preserveAspectRatio="xMidYMin meet" xmlns="http://www.w3.org/2000/svg" version="1.1"><g><g transform="translate(410.0 47.0)"><path fill="none" d="M270.5434099271784 135.26700329507008 Q270.5434099271784 191.31162550326437 230.92480015081736 230.9283264022067 Q191.30781715176389 270.5434099271784 135.26700329507008 270.5434099271784 Q79.23251788420303 270.5434099271784 39.6174343592313 230.92833580554372 Q0.0 191.3109014463124 0.0 135.26700329507008 Q0.0 79.22944299299152 39.6174343592313 39.61390810784195 Q79.23325134449202 0.0 135.26700329507008 0.0 Q191.3016485626668 0.0 230.921273899428 39.61390810784195 Q270.5434099271784 79.2303457133472 270.5434099271784 135.26700329507008 L270.5434099271784 135.26700329507008z" stroke-width="2.0" stroke-linejoin="round" stroke="#999999"/><path fill="none" d="M232.8454157552047 226.0280105074869 Q192.8367179451493 208.4907888118383 135.26699671273414 208.4907888118383 Q77.70080173170832 208.4907888118383 37.70737494100303 226.0280105074869" stroke-width="2.0" stroke-linejoin="round" stroke="#999999"/><path fill="none" d="M37.70738152333897 48.26732901728153 Q77.69274589286768 65.78574497918736 135.26700329507008 65.78574497918736 Q192.84479259066407 65.78574497918736 232.84543174087767 48.26732901728153" stroke-width="2.0" stroke-linejoin="round" stroke="#999999"/><path fill="none" d="M105.21394094185891 4.212694993131136 Q58.48875637784748 45.51908528580945 58.48875637784748 135.27640663210832 Q58.48875637784748 224.16031218228218 104.50869254465837 265.76651471175296" stroke-width="2.0" stroke-linejoin="round" stroke="#999999"/><path fill="none" d="M166.0253131521648 265.7665137714192 Q212.05465354933096 224.1502966880028 212.05465354933096 135.27641509511167 Q212.05465354933096 45.51908434547576 165.32947180632064 4.212703456134471" stroke-width="2.0" stroke-linejoin="round" stroke="#999999"/></g><g transform="translate(451.0 106.0)"><path fill="none" d="M188.83678351363875 153.52583787428102 L0.0 153.52583787428102 L0.0 0.0 L188.83678351363875 0.0 L188.83678351363875 153.52583787428102z" stroke="none"/><path fill="#55acee" fill-opacity="1.0" d="M188.83678351363864 18.23119324757087 Q178.21255529722396 22.95307916549184 166.57553995014084 24.37222639650799 Q179.19245792244254 16.862148767066444 183.65529234192758 2.878609460142769 Q171.98937494063347 9.758504444796872 159.0911524254967 12.282067212959543 Q147.43892470033595 0.0 130.88077093127865 0.0 Q114.76056234688858 0.0 103.4380361960698 11.322530726245287 Q92.11550272456861 22.645059622319966 92.11550272456861 38.76527552739244 Q92.11550272456861 42.795318522636926 93.07503921128287 47.59301193723184 Q44.21207189050034 45.266198914818624 13.2416036996738 7.100570093194028 Q8.060106122365633 16.244387490182383 8.060106122365633 26.675113598588087 Q8.060106122365633 47.40110024747954 25.331762883222247 58.91553808805062 Q15.99473208763802 58.632597372693695 7.868198092954539 54.117855654479335 Q7.868198092954539 54.40571586842537 7.868198092954539 54.6935760823714 Q7.868198092954539 68.6461489026404 16.791888517499487 79.37765439930038 Q25.56236254941623 89.92490564002384 38.95717989646233 92.69121583177827 Q34.38978050957017 94.0345683773147 28.786092771257085 94.0345683773147 Q24.56411429404242 94.0345683773147 21.493615106194618 93.26693625967033 Q30.124465422574417 119.82339257718459 57.764093571925265 120.13395788766951 Q36.06437563309889 136.63798985156419 9.211550638490982 136.63798985156419 Q4.605717211328749 136.63798985156419 0.0 136.06226210298968 Q26.79754103111041 153.52583787428102 59.4912621762839 153.52583787428102 Q85.1169522890113 153.52583787428102 106.76942986415384 143.48968007700816 Q126.6059023537192 134.29525434487815 141.3637246182697 117.56720949880075 Q169.83795814842338 85.29151396141808 169.83795814842338 43.17914190214154 Q169.83795814842338 39.916716383176585 169.6460537793535 38.18955143915916 Q180.74227567439073 30.223040241587853 188.83678351363864 18.23119324757087" style="fill-rule: evenodd;" stroke="none"/></g></g></svg>