<?xml version="1.0" encoding="UTF-8"?>

<svg version="1.2" baseProfile="tiny" viewBox="0 0 21000 29700" preserveAspectRatio="xMidYMid" fill-rule="evenodd" clip-path="url(#presentation_clip_path)" stroke-width="28.222" stroke-linejoin="round" xmlns="http://www.w3.org/2000/svg" xmlns:xlink="http://www.w3.org/1999/xlink" xmlns:draw="urn:oasis:names:tc:opendocument:xmlns:drawing:1.0" xmlns:presentation="urn:oasis:names:tc:opendocument:xmlns:presentation:1.0" xmlns:smil="urn:oasis:names:tc:opendocument:xmlns:smil-compatible:1.0" xmlns:anim="urn:oasis:names:tc:opendocument:xmlns:animation:1.0" xml:space="preserve">
 <defs>
  <clipPath id="presentation_clip_path" clipPathUnits="userSpaceOnUse">
   <rect x="0" y="0" width="21000" height="29700"/>
  </clipPath>
 </defs>
 <g id="id2" class="Master_Slide" clip-path="url(#presentation_clip_path)">
  <g id="bg-id2" visibility="visible" class="Background">
   <rect fill="none" stroke="none" x="0" y="0" width="21000" height="29700"/>
  </g>
  <g id="bo-id2" visibility="visible" class="BackgroundObjects"/>
 </g>
 <g id="id1" class="Slide" visibility="visible" clip-path="url(#presentation_clip_path)">
  <g class="Group">
   <g class="com.sun.star.drawing.CustomShape">
    <g>
     <path fill="rgb(255,255,255)" stroke="none" d="M 2413,4105 L 2413,4105 2660,4239 2660,4239 2733,4301 2795,4373 2795,4373 2826,4425 2846,4476 2856,4538 2856,4610 2856,4610 2846,4713 2815,4796 2764,4878 2702,4950 2702,4950 2619,5012 2526,5054 2433,5074 2340,5085 2340,5085 2216,5074 2113,5054 2113,5054 2020,5012 1907,4961 1897,4610 1897,4610 1927,4682 1958,4755 2000,4816 2051,4878 2051,4878 2103,4930 2165,4961 2237,4981 2320,4992 2320,4992 2402,4981 2464,4961 2526,4930 2567,4889 2567,4889 2598,4837 2619,4786 2640,4734 2640,4672 2640,4672 2640,4610 2619,4548 2598,4507 2567,4466 2567,4466 2454,4394 2247,4291 2247,4291 2165,4249 2093,4198 2031,4157 1989,4105 1989,4105 1948,4053 1927,3992 1907,3930 1907,3868 1907,3868 1917,3775 1938,3693 1989,3620 2051,3559 2051,3559 2134,3517 2206,3476 2299,3456 2392,3456 2392,3456 2485,3456 2567,3476 2650,3507 2722,3538 2733,3847 2733,3847 2722,3796 2691,3744 2650,3693 2609,3641 2609,3641 2557,3600 2495,3569 2433,3559 2361,3548 2361,3548 2289,3548 2237,3569 2196,3590 2155,3631 2155,3631 2134,3662 2113,3703 2103,3754 2093,3796 2093,3796 2103,3847 2113,3889 2134,3919 2155,3961 2155,3961 2258,4023 2413,4105 2413,4105 2413,4105 Z M 1897,3456 L 1897,3456 Z M 2857,5085 L 2857,5085 Z"/>
     <rect fill="none" stroke="none" x="1897" y="3456" width="961" height="1630"/>
     <rect fill="none" stroke="none" x="1898" y="3456" width="960" height="1629"/>
    </g>
   </g>
   <g class="com.sun.star.drawing.CustomShape">
    <g>
     <path fill="rgb(255,255,255)" stroke="none" d="M 3464,3960 L 3464,3960 3546,3960 3619,3980 3680,4001 3742,4042 3742,4042 3804,4083 3846,4135 3887,4186 3918,4248 3918,4248 3939,4320 3959,4382 3970,4454 3970,4527 3970,4527 3970,4589 3959,4661 3939,4723 3908,4795 3908,4795 3866,4857 3825,4908 3784,4960 3722,5011 3722,5011 3660,5042 3598,5063 3526,5083 3453,5083 3453,5083 3340,5073 3288,5063 3237,5042 3185,5022 3144,4991 3113,4949 3071,4919 3071,4919 3020,4826 2978,4733 2948,4630 2948,4527 2948,4527 2948,4454 2958,4382 2978,4320 3009,4248 3009,4248 3040,4186 3082,4135 3133,4083 3195,4042 3195,4042 3247,4001 3319,3980 3391,3960 3464,3960 3464,3960 3464,3960 Z M 3443,4042 L 3443,4042 3371,4052 3309,4083 3268,4135 3226,4197 3226,4197 3195,4269 3175,4351 3154,4434 3154,4537 3154,4537 3164,4630 3185,4723 3216,4795 3247,4867 3247,4867 3298,4929 3350,4970 3412,4991 3474,4991 3474,4991 3546,4980 3598,4949 3649,4908 3691,4846 3691,4846 3722,4774 3742,4692 3763,4609 3763,4506 3763,4506 3742,4382 3711,4269 3711,4269 3670,4176 3608,4104 3608,4104 3577,4073 3536,4063 3495,4042 3443,4042 3443,4042 3443,4042 Z M 2948,3960 L 2948,3960 Z M 3970,5084 L 3970,5084 Z"/>
     <rect fill="none" stroke="none" x="2947" y="3960" width="1024" height="1125"/>
     <rect fill="none" stroke="none" x="2949" y="3961" width="1022" height="1124"/>
    </g>
   </g>
   <g class="com.sun.star.drawing.CustomShape">
    <g>
     <path fill="rgb(255,255,255)" stroke="none" d="M 5415,3774 L 5415,3990 5735,3990 5652,4083 5405,4083 5405,4743 5405,4743 5405,4805 5415,4846 5436,4888 5456,4929 5487,4949 5528,4970 5570,4980 5621,4991 5621,4991 5673,4980 5704,4970 5704,4970 5766,4929 5766,4929 5766,4949 5755,4980 5693,5032 5693,5032 5662,5053 5621,5073 5580,5083 5528,5083 5528,5083 5466,5083 5405,5063 5343,5032 5301,4991 5301,4991 5260,4949 5229,4888 5209,4826 5209,4743 5209,4083 5106,4083 5415,3774 5415,3774 5415,3774 Z M 5106,3774 L 5106,3774 Z M 5766,5084 L 5766,5084 Z"/>
     <rect fill="none" stroke="none" x="5106" y="3774" width="661" height="1311"/>
     <rect fill="none" stroke="none" x="5107" y="3775" width="660" height="1310"/>
    </g>
   </g>
   <g class="com.sun.star.drawing.CustomShape">
    <g>
     <path fill="rgb(255,255,255)" stroke="none" d="M 6478,3961 L 6478,3961 6540,3961 6612,3982 6674,4012 6725,4043 6725,4043 6767,4095 6798,4147 6818,4208 6829,4281 6829,4982 6829,4982 6829,5013 6839,5034 6839,5034 6891,5064 6560,5064 6560,5064 6591,5044 6612,5023 6622,5003 6622,4982 6622,4363 6622,4363 6622,4301 6612,4250 6591,4208 6571,4167 6571,4167 6530,4136 6488,4116 6437,4105 6375,4095 6375,4095 6303,4105 6230,4136 6230,4136 6169,4167 6117,4219 6117,4982 6117,4982 6127,5003 6138,5023 6138,5023 6158,5044 6189,5064 5859,5064 5859,5064 5880,5044 5900,5023 5911,5003 5911,4982 5911,3600 5911,3600 5911,3569 5900,3538 5900,3538 5839,3507 6117,3456 6117,4126 6117,4126 6210,4054 6303,4002 6395,3971 6478,3961 6478,3961 6478,3961 Z M 5839,3456 L 5839,3456 Z M 6891,5065 L 6891,5065 Z"/>
     <rect fill="none" stroke="none" x="5839" y="3456" width="1053" height="1610"/>
     <rect fill="none" stroke="none" x="5840" y="3456" width="1052" height="1609"/>
    </g>
   </g>
   <g class="com.sun.star.drawing.CustomShape">
    <g>
     <path fill="rgb(255,255,255)" stroke="none" d="M 9265,3960 L 9265,3960 9327,3960 9389,3980 9451,4011 9502,4042 9502,4042 9554,4094 9585,4145 9606,4207 9606,4279 9606,4981 9606,4981 9616,5002 9626,5022 9626,5022 9668,5063 9347,5063 9347,5063 9368,5043 9389,5022 9409,5002 9409,4981 9409,4352 9409,4352 9409,4290 9399,4248 9378,4197 9347,4166 9347,4166 9317,4135 9275,4114 9224,4094 9162,4094 9162,4094 9089,4104 9027,4125 8966,4176 8914,4238 8914,4238 8914,4269 8914,4981 8914,4981 8924,5002 8935,5022 8935,5022 8976,5063 8645,5063 8645,5063 8676,5043 8697,5022 8707,5002 8707,4981 8707,4341 8707,4341 8707,4279 8697,4228 8676,4186 8645,4156 8615,4125 8573,4104 8522,4094 8470,4094 8470,4094 8398,4104 8336,4125 8284,4156 8233,4207 8233,4981 8233,4981 8233,5002 8243,5022 8243,5022 8294,5063 7964,5063 7964,5063 7995,5043 8016,5022 8026,5002 8026,4981 8026,4104 8026,4104 8026,4073 8005,4042 8005,4042 7974,4021 7944,4011 8233,3960 8233,4114 8233,4114 8305,4063 8387,4011 8387,4011 8429,3990 8470,3970 8522,3960 8573,3960 8573,3960 8625,3960 8676,3970 8718,3990 8769,4011 8769,4011 8811,4042 8842,4073 8873,4114 8893,4166 8893,4166 8966,4083 9058,4021 9058,4021 9110,3990 9162,3970 9213,3960 9265,3960 9265,3960 9265,3960 Z M 7944,3960 L 7944,3960 Z M 9668,5064 L 9668,5064 Z"/>
     <rect fill="none" stroke="none" x="7944" y="3960" width="1725" height="1105"/>
     <rect fill="none" stroke="none" x="7945" y="3961" width="1724" height="1104"/>
    </g>
   </g>
   <g class="com.sun.star.drawing.CustomShape">
    <g>
     <path fill="rgb(255,255,255)" stroke="none" d="M 11143,3774 L 11143,3990 11463,3990 11380,4083 11132,4083 11132,4743 11132,4743 11143,4805 11153,4846 11163,4888 11194,4929 11215,4949 11256,4970 11298,4980 11349,4991 11349,4991 11401,4980 11432,4970 11432,4970 11505,4929 11505,4929 11494,4949 11484,4980 11422,5032 11422,5032 11391,5053 11349,5073 11308,5083 11267,5083 11267,5083 11194,5083 11132,5063 11070,5032 11029,4991 11029,4991 10988,4949 10957,4888 10946,4826 10936,4743 10936,4083 10833,4083 11143,3774 11143,3774 11143,3774 Z M 10833,3774 L 10833,3774 Z M 11505,5084 L 11505,5084 Z"/>
     <rect fill="none" stroke="none" x="10832" y="3774" width="674" height="1311"/>
     <rect fill="none" stroke="none" x="10834" y="3775" width="672" height="1310"/>
    </g>
   </g>
   <g class="com.sun.star.drawing.CustomShape">
    <g>
     <path fill="rgb(255,255,255)" stroke="none" d="M 12021,3960 L 12021,3960 12094,3960 12166,3980 12238,4001 12300,4042 12300,4042 12352,4083 12404,4135 12445,4186 12476,4248 12476,4248 12497,4320 12517,4382 12528,4454 12528,4527 12528,4527 12528,4589 12507,4661 12486,4723 12466,4795 12466,4795 12424,4857 12383,4908 12331,4960 12280,5011 12280,5011 12218,5042 12156,5063 12083,5083 12011,5083 12011,5083 11897,5073 11835,5063 11794,5042 11742,5022 11701,4991 11660,4949 11629,4919 11629,4919 11567,4826 11536,4733 11505,4630 11495,4527 11495,4527 11505,4454 11515,4382 11536,4320 11567,4248 11567,4248 11598,4186 11639,4135 11691,4083 11742,4042 11742,4042 11804,4001 11877,3980 11939,3960 12021,3960 12021,3960 12021,3960 Z M 12001,4042 L 12001,4042 11928,4052 11866,4083 11815,4135 11773,4197 11773,4197 11742,4269 11722,4351 11711,4434 11711,4537 11711,4537 11722,4630 11742,4723 11763,4795 11804,4867 11804,4867 11846,4929 11908,4970 11959,4991 12032,4991 12032,4991 12094,4980 12156,4949 12207,4908 12249,4846 12249,4846 12280,4774 12300,4692 12311,4609 12311,4506 12311,4506 12300,4382 12269,4269 12269,4269 12228,4176 12166,4104 12166,4104 12135,4073 12094,4063 12042,4042 12001,4042 12001,4042 12001,4042 Z M 11495,3960 L 11495,3960 Z M 12528,5084 L 12528,5084 Z"/>
     <rect fill="none" stroke="none" x="11495" y="3960" width="1034" height="1125"/>
     <rect fill="none" stroke="none" x="11495" y="3961" width="1033" height="1124"/>
    </g>
   </g>
   <g class="com.sun.star.drawing.CustomShape">
    <g>
     <path fill="rgb(255,255,255)" stroke="none" d="M 13187,3960 L 13187,3960 13280,3970 13363,4001 13363,4001 13435,4042 13487,4114 13487,4114 13508,4145 13528,4186 13539,4238 13539,4279 13539,4981 13539,4981 13539,5002 13549,5022 13549,5022 13601,5063 13280,5063 13280,5063 13301,5053 13322,5022 13332,5002 13342,4981 13342,4362 13342,4362 13332,4300 13322,4248 13301,4197 13280,4166 13239,4135 13198,4114 13146,4104 13094,4094 13094,4094 13022,4104 12960,4135 12960,4135 12898,4166 12857,4217 12857,4981 12857,4981 12857,5002 12867,5022 12867,5022 12919,5063 12588,5063 12588,5063 12619,5053 12629,5022 12640,5002 12650,4981 12650,4104 12650,4104 12640,4073 12629,4052 12609,4032 12568,4011 12857,3960 12857,4125 12857,4125 12919,4063 13001,4011 13001,4011 13053,3990 13094,3970 13146,3960 13187,3960 13187,3960 13187,3960 Z M 12568,3960 L 12568,3960 Z M 13601,5064 L 13601,5064 Z"/>
     <rect fill="none" stroke="none" x="12568" y="3960" width="1034" height="1105"/>
     <rect fill="none" stroke="none" x="12568" y="3961" width="1033" height="1104"/>
    </g>
   </g>
   <g class="com.sun.star.drawing.CustomShape">
    <g>
     <path fill="rgb(255,255,255)" stroke="none" d="M 10741,4269 L 10741,4269 10690,4166 10628,4094 10628,4094 10555,4032 10483,3990 10483,3990 10401,3970 10318,3960 10318,3960 10225,3970 10132,4001 10132,4001 10060,4052 9998,4104 9998,3960 9720,4021 9720,4021 9750,4032 9781,4052 9792,4083 9802,4114 9802,5507 9802,5507 9792,5538 9781,5569 9761,5589 9740,5599 10060,5599 10060,5599 10039,5589 10019,5569 10008,5538 9998,5507 9998,4207 9998,4207 10050,4155 10101,4125 10101,4125 10163,4094 10236,4083 10236,4083 10297,4094 10349,4114 10411,4145 10463,4186 10463,4186 10504,4248 10535,4321 10555,4413 10555,4527 10555,4527 10555,4630 10535,4723 10504,4805 10463,4867 10463,4867 10411,4929 10359,4960 10287,4991 10215,4991 10215,4991 10163,4991 10122,4981 10081,4960 10039,4919 10091,5063 10091,5063 10163,5084 10246,5084 10246,5084 10359,5073 10411,5063 10463,5043 10514,5012 10555,4991 10597,4950 10638,4908 10638,4908 10700,4816 10741,4723 10772,4620 10782,4516 10782,4516 10772,4382 10741,4269 10741,4269 10741,4269 Z M 9720,3960 L 9720,3960 Z M 10783,5600 L 10783,5600 Z"/>
     <rect fill="none" stroke="none" x="9720" y="3960" width="1064" height="1641"/>
     <rect fill="none" stroke="none" x="9720" y="3961" width="1063" height="1640"/>
    </g>
   </g>
   <g class="com.sun.star.drawing.CustomShape">
    <g>
     <path fill="rgb(255,255,255)" stroke="none" d="M 4673,4919 L 4673,4919 4611,4939 4538,4949 4538,4949 4487,4949 4445,4929 4404,4908 4373,4867 4373,4867 4342,4826 4311,4774 4301,4712 4301,4650 4301,3960 4012,4011 4012,4011 4053,4032 4073,4052 4094,4073 4094,4104 4094,4650 4094,4650 4104,4754 4125,4846 4156,4919 4208,4980 4208,4980 4270,5032 4321,5063 4383,5083 4456,5083 4456,5083 4528,5083 4600,5063 4662,5032 4724,4980 4765,4846 4765,4846 4724,4888 4673,4919 4673,4919 4673,4919 Z M 4012,3960 L 4012,3960 Z M 4766,5084 L 4766,5084 Z"/>
     <rect fill="none" stroke="none" x="4012" y="3960" width="755" height="1125"/>
     <rect fill="none" stroke="none" x="4013" y="3961" width="754" height="1124"/>
    </g>
   </g>
   <g class="com.sun.star.drawing.CustomShape">
    <g>
     <path fill="rgb(255,255,255)" stroke="none" d="M 4993,4877 L 4993,3960 4704,4011 4704,4011 4745,4021 4765,4042 4765,4042 4786,4073 4786,4104 4786,4826 4796,4919 4796,4919 4796,4919 4796,4919 4796,4980 4817,5022 4817,5022 4838,5053 4879,5083 5086,5011 5086,5011 5044,5001 5013,4970 4993,4929 4993,4877 4993,4877 4993,4877 Z M 4704,3960 L 4704,3960 Z M 5086,5084 L 5086,5084 Z"/>
     <rect fill="none" stroke="none" x="4704" y="3960" width="384" height="1125"/>
     <rect fill="none" stroke="none" x="4705" y="3961" width="382" height="1124"/>
    </g>
   </g>
   <g class="com.sun.star.drawing.CustomShape">
    <g>
     <path fill="rgb(255,255,255)" stroke="none" d="M 7832,4970 L 7832,4970 7821,4949 7821,4898 7821,4269 7821,4269 7811,4186 7790,4124 7759,4063 7708,4021 7708,4021 7656,4001 7594,3980 7522,3960 7449,3960 7449,3960 7356,3970 7263,3990 7170,4021 7088,4073 7088,4362 7088,4362 7119,4289 7139,4228 7181,4176 7212,4135 7212,4135 7253,4094 7305,4073 7367,4052 7429,4042 7429,4042 7470,4052 7511,4063 7553,4083 7573,4104 7573,4104 7604,4135 7615,4176 7625,4207 7625,4248 7625,4248 7625,4320 7615,4351 7615,4351 7584,4382 7532,4403 7532,4403 7336,4465 7336,4465 7212,4506 7139,4537 7139,4537 7067,4589 7026,4650 6995,4723 6985,4805 6985,4805 6985,4846 7005,4898 7026,4939 7057,4991 7057,4991 7098,5032 7139,5063 7201,5083 7263,5083 7263,5083 7346,5083 7418,5063 7491,5022 7563,4970 7604,4857 7604,4857 7553,4898 7491,4929 7429,4949 7356,4949 7356,4949 7325,4949 7284,4939 7253,4929 7232,4898 7232,4898 7212,4877 7191,4836 7181,4805 7181,4764 7181,4764 7181,4723 7191,4692 7212,4661 7232,4630 7232,4630 7294,4589 7377,4547 7377,4547 7542,4496 7625,4454 7625,4836 7625,4836 7625,4908 7625,4908 7635,4980 7646,5022 7646,5022 7677,5053 7708,5083 7894,5011 7894,5011 7852,4991 7832,4970 7832,4970 7832,4970 Z M 6985,3960 L 6985,3960 Z M 7894,5084 L 7894,5084 Z"/>
     <rect fill="none" stroke="none" x="6985" y="3960" width="910" height="1125"/>
     <rect fill="none" stroke="none" x="6985" y="3961" width="909" height="1124"/>
    </g>
   </g>
   <g class="com.sun.star.drawing.CustomShape">
    <g>
     <path fill="rgb(255,255,255)" stroke="none" d="M 6593,3114 L 6593,3496 6593,3496 6603,3548 6624,3589 6645,3620 6665,3631 6706,3641 6748,3651 6748,3651 6789,3651 6820,3641 6851,3620 6871,3600 6882,3579 6892,3548 6902,3496 6902,3114 6902,3114 6892,3083 6871,3073 6975,3073 6975,3073 6954,3083 6954,3114 6944,3486 6944,3486 6944,3538 6933,3579 6913,3620 6882,3641 6851,3662 6820,3682 6737,3693 6737,3693 6665,3682 6624,3672 6593,3651 6552,3620 6531,3589 6510,3538 6510,3486 6510,3114 6510,3114 6500,3083 6480,3073 6624,3073 6624,3073 6603,3083 6593,3114 6593,3114 6593,3114 Z M 6480,3073 L 6480,3073 Z M 6975,3693 L 6975,3693 Z"/>
     <rect fill="none" stroke="none" x="6480" y="3073" width="496" height="621"/>
     <rect fill="none" stroke="none" x="6480" y="3074" width="495" height="620"/>
    </g>
   </g>
   <g class="com.sun.star.drawing.CustomShape">
    <g>
     <path fill="rgb(255,255,255)" stroke="none" d="M 7510,3115 L 7510,3115 7510,3084 7490,3074 7583,3074 7583,3074 7562,3084 7562,3115 7562,3702 7562,3702 7345,3434 7129,3166 7129,3641 7129,3641 7139,3672 7149,3682 7056,3682 7056,3682 7077,3672 7077,3641 7077,3146 7077,3146 7077,3125 7067,3104 7067,3104 7056,3084 7026,3074 7160,3074 7510,3507 7510,3115 7510,3115 7510,3115 Z M 7026,3074 L 7026,3074 Z M 7583,3703 L 7583,3703 Z"/>
     <rect fill="none" stroke="none" x="7026" y="3074" width="558" height="631"/>
     <rect fill="none" stroke="none" x="7026" y="3074" width="557" height="629"/>
    </g>
   </g>
   <g class="com.sun.star.drawing.CustomShape">
    <g>
     <path fill="rgb(255,255,255)" stroke="none" d="M 7810,3073 L 7810,3073 7789,3083 7779,3114 7779,3641 7779,3641 7789,3672 7810,3683 7676,3683 7676,3683 7686,3672 7696,3641 7696,3114 7696,3114 7686,3083 7676,3073 7810,3073 7810,3073 7810,3073 Z M 7676,3073 L 7676,3073 Z M 7810,3683 L 7810,3683 Z"/>
     <rect fill="none" stroke="none" x="7676" y="3073" width="135" height="611"/>
     <rect fill="none" stroke="none" x="7677" y="3074" width="134" height="610"/>
    </g>
   </g>
   <g class="com.sun.star.drawing.CustomShape">
    <g>
     <path fill="rgb(255,255,255)" stroke="none" d="M 8326,3115 L 8326,3115 8326,3084 8305,3074 8409,3074 8409,3074 8388,3094 8367,3115 8367,3115 8151,3702 8151,3702 7903,3115 7903,3115 7882,3094 7852,3074 8017,3074 8017,3074 8006,3084 7996,3094 8006,3125 8006,3125 8161,3538 8161,3538 8326,3115 8326,3115 8326,3115 Z M 7852,3074 L 7852,3074 Z M 8409,3703 L 8409,3703 Z"/>
     <rect fill="none" stroke="none" x="7852" y="3074" width="559" height="631"/>
     <rect fill="none" stroke="none" x="7852" y="3074" width="557" height="629"/>
    </g>
   </g>
   <g class="com.sun.star.drawing.CustomShape">
    <g>
     <path fill="rgb(255,255,255)" stroke="none" d="M 8781,3155 L 8781,3155 8750,3124 8709,3114 8709,3114 8553,3114 8553,3321 8698,3321 8698,3321 8719,3310 8729,3300 8729,3393 8729,3393 8719,3372 8698,3372 8553,3372 8553,3631 8553,3631 8657,3641 8657,3641 8719,3641 8760,3631 8791,3610 8822,3579 8802,3683 8440,3683 8440,3683 8460,3672 8471,3641 8471,3114 8471,3114 8460,3083 8440,3073 8781,3073 8781,3155 8781,3155 8781,3155 Z M 8440,3073 L 8440,3073 Z M 8823,3683 L 8823,3683 Z"/>
     <rect fill="none" stroke="none" x="8440" y="3073" width="384" height="611"/>
     <rect fill="none" stroke="none" x="8440" y="3074" width="383" height="610"/>
    </g>
   </g>
   <g class="com.sun.star.drawing.CustomShape">
    <g>
     <path fill="rgb(255,255,255)" stroke="none" d="M 9111,3372 L 9111,3372 9142,3383 9173,3403 9204,3445 9204,3445 9255,3527 9297,3600 9338,3651 9338,3651 9369,3672 9390,3683 9297,3683 9297,3683 9276,3683 9255,3672 9224,3641 9224,3641 9121,3476 9121,3476 9080,3424 9059,3403 9028,3403 9028,3403 8976,3403 8976,3641 8976,3641 8987,3672 8997,3683 8863,3683 8863,3683 8883,3672 8894,3641 8894,3114 8894,3114 8883,3083 8863,3073 9038,3073 9038,3073 9100,3073 9142,3083 9183,3104 9214,3124 9235,3145 9245,3176 9255,3217 9255,3217 9255,3259 9245,3290 9224,3310 9204,3331 9162,3362 9111,3372 9111,3372 9111,3372 Z M 8976,3114 L 8976,3352 8976,3352 9028,3352 9028,3352 9080,3352 9121,3321 9142,3310 9152,3279 9162,3259 9162,3228 9162,3228 9162,3186 9142,3145 9100,3114 9080,3114 9038,3104 9038,3104 8976,3114 8976,3114 8976,3114 Z M 8863,3073 L 8863,3073 Z M 9390,3683 L 9390,3683 Z"/>
     <rect fill="none" stroke="none" x="8863" y="3073" width="528" height="611"/>
     <rect fill="none" stroke="none" x="8863" y="3074" width="527" height="610"/>
    </g>
   </g>
   <g class="com.sun.star.drawing.CustomShape">
    <g>
     <path fill="rgb(255,255,255)" stroke="none" d="M 9760,3508 L 9760,3508 9760,3549 9740,3580 9719,3611 9699,3642 9668,3663 9637,3683 9596,3693 9565,3693 9565,3693 9513,3683 9462,3673 9400,3642 9390,3508 9390,3508 9410,3559 9441,3601 9493,3642 9523,3652 9554,3652 9554,3652 9585,3652 9616,3642 9637,3632 9657,3611 9678,3570 9678,3539 9678,3539 9678,3508 9668,3477 9637,3446 9585,3415 9523,3384 9523,3384 9472,3353 9431,3312 9400,3271 9400,3219 9400,3219 9400,3188 9410,3157 9431,3126 9462,3106 9513,3075 9585,3065 9585,3065 9647,3075 9678,3085 9709,3095 9719,3219 9719,3219 9699,3178 9668,3147 9627,3116 9596,3106 9565,3106 9565,3106 9523,3106 9493,3137 9472,3168 9472,3199 9472,3199 9472,3229 9503,3260 9534,3291 9596,3312 9596,3312 9657,3343 9709,3384 9730,3405 9750,3436 9760,3467 9760,3508 9760,3508 9760,3508 Z M 9390,3065 L 9390,3065 Z M 9761,3694 L 9761,3694 Z"/>
     <rect fill="none" stroke="none" x="9390" y="3065" width="373" height="631"/>
     <rect fill="none" stroke="none" x="9390" y="3065" width="371" height="629"/>
    </g>
   </g>
   <g class="com.sun.star.drawing.CustomShape">
    <g>
     <path fill="rgb(255,255,255)" stroke="none" d="M 9958,3073 L 9958,3073 9937,3083 9926,3114 9926,3641 9926,3641 9937,3672 9958,3683 9823,3683 9823,3683 9833,3672 9843,3641 9843,3114 9843,3114 9833,3083 9823,3073 9958,3073 9958,3073 9958,3073 Z M 9823,3073 L 9823,3073 Z M 9958,3683 L 9958,3683 Z"/>
     <rect fill="none" stroke="none" x="9823" y="3073" width="136" height="611"/>
     <rect fill="none" stroke="none" x="9823" y="3074" width="135" height="610"/>
    </g>
   </g>
   <g class="com.sun.star.drawing.CustomShape">
    <g>
     <path fill="rgb(255,255,255)" stroke="none" d="M 10287,3114 L 10287,3641 10287,3641 10287,3672 10308,3683 10173,3683 10173,3683 10194,3672 10194,3641 10194,3114 10194,3114 10049,3124 10049,3124 10039,3124 10018,3135 9998,3155 9998,3073 10473,3073 10473,3155 10473,3155 10463,3135 10432,3124 10432,3124 10287,3114 10287,3114 10287,3114 Z M 9998,3073 L 9998,3073 Z M 10474,3683 L 10474,3683 Z"/>
     <rect fill="none" stroke="none" x="9997" y="3073" width="478" height="611"/>
     <rect fill="none" stroke="none" x="9999" y="3074" width="476" height="610"/>
    </g>
   </g>
   <g class="com.sun.star.drawing.CustomShape">
    <g>
     <path fill="rgb(255,255,255)" stroke="none" d="M 11010,3073 L 11010,3073 10969,3093 10948,3124 10804,3393 10804,3641 10804,3641 10814,3672 10845,3683 10690,3683 10690,3683 10711,3672 10721,3662 10721,3641 10721,3393 10545,3114 10545,3114 10525,3093 10494,3073 10669,3073 10669,3073 10659,3073 10649,3083 10649,3104 10659,3124 10783,3352 10907,3114 10907,3114 10907,3093 10907,3083 10886,3073 11010,3073 11010,3073 11010,3073 Z M 10494,3073 L 10494,3073 Z M 11011,3683 L 11011,3683 Z"/>
     <rect fill="none" stroke="none" x="10494" y="3073" width="518" height="611"/>
     <rect fill="none" stroke="none" x="10494" y="3074" width="517" height="610"/>
    </g>
   </g>
   <g class="com.sun.star.drawing.CustomShape">
    <g>
     <path fill="rgb(255,255,255)" stroke="none" d="M 11556,3693 L 11556,3693 11505,3683 11453,3663 11401,3642 11360,3601 11329,3549 11298,3498 11288,3436 11278,3374 11278,3374 11288,3312 11298,3260 11329,3209 11360,3157 11401,3116 11453,3085 11505,3075 11577,3065 11577,3065 11618,3075 11670,3085 11722,3116 11763,3147 11794,3199 11825,3250 11846,3312 11846,3384 11846,3384 11846,3456 11825,3518 11794,3570 11753,3621 11711,3652 11660,3673 11608,3693 11556,3693 11556,3693 11556,3693 Z M 11370,3364 L 11370,3364 11381,3436 11391,3498 11412,3539 11432,3580 11463,3611 11494,3632 11536,3642 11567,3652 11567,3652 11608,3642 11649,3632 11680,3611 11701,3580 11722,3539 11742,3498 11753,3446 11753,3384 11753,3384 11753,3322 11742,3271 11722,3219 11701,3178 11680,3147 11649,3126 11608,3106 11567,3106 11567,3106 11525,3106 11484,3116 11453,3147 11422,3168 11401,3209 11391,3250 11381,3302 11370,3364 11370,3364 11370,3364 Z M 11278,3065 L 11278,3065 Z M 11846,3694 L 11846,3694 Z"/>
     <rect fill="none" stroke="none" x="11278" y="3065" width="569" height="631"/>
     <rect fill="none" stroke="none" x="11279" y="3065" width="568" height="629"/>
    </g>
   </g>
   <g class="com.sun.star.drawing.CustomShape">
    <g>
     <path fill="rgb(255,255,255)" stroke="none" d="M 12042,3683 L 11908,3683 11908,3683 11928,3672 11928,3641 11928,3114 11928,3114 11928,3083 11908,3073 12269,3073 12269,3155 12269,3155 12238,3124 12186,3114 12186,3114 12021,3114 12021,3321 12165,3321 12165,3321 12186,3310 12196,3300 12196,3393 12196,3393 12186,3372 12165,3372 12021,3372 12021,3641 12021,3641 12021,3672 12042,3683 12042,3683 12042,3683 Z M 11908,3073 L 11908,3073 Z M 12269,3683 L 12269,3683 Z"/>
     <rect fill="none" stroke="none" x="11908" y="3073" width="362" height="611"/>
     <rect fill="none" stroke="none" x="11908" y="3074" width="361" height="610"/>
    </g>
   </g>
  </g>
 </g>
</svg>